<?xml version="1.0" encoding="UTF-8" standalone="no"?>
<!-- Generator: Adobe Illustrator 18.0.0, SVG Export Plug-In . SVG Version: 6.00 Build 0)  -->

<svg
   xmlns:dc="http://purl.org/dc/elements/1.1/"
   xmlns:cc="http://creativecommons.org/ns#"
   xmlns:rdf="http://www.w3.org/1999/02/22-rdf-syntax-ns#"
   xmlns:svg="http://www.w3.org/2000/svg"
   xmlns="http://www.w3.org/2000/svg"
   xmlns:sodipodi="http://sodipodi.sourceforge.net/DTD/sodipodi-0.dtd"
   xmlns:inkscape="http://www.inkscape.org/namespaces/inkscape"
   version="1.1"
   id="l1"
   x="0px"
   y="0px"
   viewBox="0 0 427.4 471.85396"
   enable-background="new 0 0 612.3 858.9"
   xml:space="preserve"
   sodipodi:docname="logo.svg"
   width="427.39999"
   height="471.85397"
   inkscape:version="0.92.3 (2405546, 2018-03-11)"><metadata
   id="metadata3791"><rdf:RDF><cc:Work
       rdf:about=""><dc:format>image/svg+xml</dc:format><dc:type
         rdf:resource="http://purl.org/dc/dcmitype/StillImage" /></cc:Work></rdf:RDF></metadata><defs
   id="defs3789" /><sodipodi:namedview
   pagecolor="#ffffff"
   bordercolor="#666666"
   borderopacity="1"
   objecttolerance="10"
   gridtolerance="10"
   guidetolerance="10"
   inkscape:pageopacity="0"
   inkscape:pageshadow="2"
   inkscape:window-width="1920"
   inkscape:window-height="1017"
   id="namedview3787"
   showgrid="false"
   inkscape:zoom="0.96635228"
   inkscape:cx="220.49373"
   inkscape:cy="193.9928"
   inkscape:window-x="0"
   inkscape:window-y="23"
   inkscape:window-maximized="1"
   inkscape:current-layer="l1" />
<g
   id="g3784"
   transform="translate(-92.9,-192.98161)">
	<path
   d="m 288.2,586 c -32.9,-20.1 -69.4,-39.8 -104.1,-59.8 -3.1,-1.6 -6.7,-1.6 -9.8,0 l -51.9,30.2 c -6.5,3.6 -6.5,13.2 0,16.8 52.1,30.2 102.1,60.2 156,90.4 6.5,3.6 14.5,-1.1 14.5,-8.5 v -60.4 c 0,-4 -2,-6.9 -4.7,-8.7 z"
   id="path3772"
   inkscape:connector-curvature="0"
   style="fill:#005ea6" />
	<path
   d="m 181,333.1 c 35.8,-20.4 73.9,-41 107.2,-61.5 3.1,-1.8 4.5,-4.9 4.5,-8.3 v -60.5 c 0,-7.4 -8.1,-12.3 -14.5,-8.5 -37.2,20.8 -71.6,41.8 -107.7,62.4 -17,9.8 -33.8,19.5 -51.1,29.5 -6.5,3.6 -6.5,13.2 0,16.8 l 52.1,30.2 c 2.8,1.6 6.6,1.6 9.5,-0.1 z"
   id="path3774"
   inkscape:connector-curvature="0"
   style="fill:#005ea6" />
	<path
   d="m 163.8,490.6 c 0,-40.1 -0.2,-79.9 0,-120 0,-3.4 -1.8,-6.7 -4.9,-8.5 l -51.5,-29.8 c -6.5,-3.6 -14.5,0.9 -14.5,8.5 v 179.5 c 0,7.4 8.1,12.3 14.5,8.5 l 51.9,-29.6 c 2.7,-2 4.5,-5.2 4.5,-8.6 z"
   id="path3776"
   inkscape:connector-curvature="0"
   style="fill:#005ea6" />
	<path
   d="m 433,333.1 c -35.8,-20.4 -73.9,-41 -107.2,-61.5 -3.1,-1.8 -4.5,-4.9 -4.5,-8.3 v -60.5 c 0,-7.4 8.1,-12.3 14.5,-8.5 37.2,20.8 71.6,41.8 107.7,62.4 17,9.8 33.8,19.5 51.1,29.5 6.5,3.6 6.5,13.2 0,16.8 l -52.1,30.2 c -2.9,1.6 -6.6,1.6 -9.5,-0.1 z"
   id="path3778"
   inkscape:connector-curvature="0"
   style="fill:#005ea6" />
	<path
   d="m 325.1,586 c 32.9,-20.1 69.4,-39.8 104.1,-59.8 3.1,-1.6 6.7,-1.6 9.8,0 l 51.9,30.2 c 6.5,3.6 6.5,13.2 0,16.8 -52.1,30.2 -102.1,60.2 -156,90.4 -6.5,3.6 -14.5,-1.1 -14.5,-8.5 v -60.4 c 0.1,-4 1.6,-6.9 4.7,-8.7 z"
   id="path3780"
   inkscape:connector-curvature="0"
   style="fill:#a5c5e6" />
	<path
   d="m 449.2,490.6 c 0,-40.1 0.2,-79.9 0,-120 0,-3.4 1.8,-6.7 4.9,-8.5 l 51.7,-29.6 c 6.5,-3.6 14.5,0.9 14.5,8.5 v 179.5 c 0,7.4 -8.1,12.3 -14.5,8.5 l -51.9,-30 c -2.9,-1.8 -4.7,-5 -4.7,-8.4 z"
   id="path3782"
   inkscape:connector-curvature="0"
   style="fill:#a5c5e6" />
	</g>
</svg>