<svg version="1.1" id="layer1" xmlns="http://www.w3.org/2000/svg"  x="0px" y="0px"
	 viewBox="0 0 612.3 858.9" enable-background="new 0 0 612.3 858.9" xml:space="preserve">
<g opacity="0.12">
	<path fill="#FFFFFF" d="M288.2,586c-32.9-20.1-69.4-39.8-104.1-59.8c-3.1-1.6-6.7-1.6-9.8,0l-51.9,30.2c-6.5,3.6-6.5,13.2,0,16.8
		c52.1,30.2,102.1,60.2,156,90.4c6.5,3.6,14.5-1.1,14.5-8.5v-60.4C292.9,590.7,290.9,587.8,288.2,586z"/>
	<path fill="#FFFFFF" d="M181,333.1c35.8-20.4,73.9-41,107.2-61.5c3.1-1.8,4.5-4.9,4.5-8.3v-60.5c0-7.4-8.1-12.3-14.5-8.5
		c-37.2,20.8-71.6,41.8-107.7,62.4c-17,9.8-33.8,19.5-51.1,29.5c-6.5,3.6-6.5,13.2,0,16.8l52.1,30.2
		C174.3,334.8,178.1,334.8,181,333.1z"/>
	<path fill="#FFFFFF" d="M163.8,490.6c0-40.1-0.2-79.9,0-120c0-3.4-1.8-6.7-4.9-8.5l-51.5-29.8c-6.5-3.6-14.5,0.9-14.5,8.5v179.5
		c0,7.4,8.1,12.3,14.5,8.5l51.9-29.6C162,497.2,163.8,494,163.8,490.6z"/>
	<path fill="#FFFFFF" d="M433,333.1c-35.8-20.4-73.9-41-107.2-61.5c-3.1-1.8-4.5-4.9-4.5-8.3v-60.5c0-7.4,8.1-12.3,14.5-8.5
		c37.2,20.8,71.6,41.8,107.7,62.4c17,9.8,33.8,19.5,51.1,29.5c6.5,3.6,6.5,13.2,0,16.8l-52.1,30.2
		C439.6,334.8,435.9,334.8,433,333.1z"/>
	<path fill="#424242" d="M325.1,586c32.9-20.1,69.4-39.8,104.1-59.8c3.1-1.6,6.7-1.6,9.8,0l51.9,30.2c6.5,3.6,6.5,13.2,0,16.8
		c-52.1,30.2-102.1,60.2-156,90.4c-6.5,3.6-14.5-1.1-14.5-8.5v-60.4C320.5,590.7,322,587.8,325.1,586z"/>
	<path fill="#424242" d="M449.2,490.6c0-40.1,0.2-79.9,0-120c0-3.4,1.8-6.7,4.9-8.5l51.7-29.6c6.5-3.6,14.5,0.9,14.5,8.5v179.5
		c0,7.4-8.1,12.3-14.5,8.5L453.9,499C451,497.2,449.2,494,449.2,490.6z"/>
</g>
</svg>
