<?xml version="1.0" encoding="UTF-8" standalone="no"?>
<svg
   xmlns:dc="http://purl.org/dc/elements/1.1/"
   xmlns:cc="http://creativecommons.org/ns#"
   xmlns:rdf="http://www.w3.org/1999/02/22-rdf-syntax-ns#"
   xmlns:svg="http://www.w3.org/2000/svg"
   xmlns="http://www.w3.org/2000/svg"
   xmlns:sodipodi="http://sodipodi.sourceforge.net/DTD/sodipodi-0.dtd"
   xmlns:inkscape="http://www.inkscape.org/namespaces/inkscape"
   viewBox="0 0 16 16"
   version="1.1"
   id="svg8"
   sodipodi:docname="add-add-folder.svg"
   inkscape:version="0.92.4 (unknown)">
  <metadata
     id="metadata14">
    <rdf:RDF>
      <cc:Work
         rdf:about="">
        <dc:format>image/svg+xml</dc:format>
        <dc:type
           rdf:resource="http://purl.org/dc/dcmitype/StillImage" />
        <dc:title></dc:title>
      </cc:Work>
    </rdf:RDF>
  </metadata>
  <defs
     id="defs12" />
  <sodipodi:namedview
     pagecolor="#ffffff"
     bordercolor="#666666"
     borderopacity="1"
     objecttolerance="10"
     gridtolerance="10"
     guidetolerance="10"
     inkscape:pageopacity="0"
     inkscape:pageshadow="2"
     inkscape:window-width="838"
     inkscape:window-height="480"
     id="namedview10"
     showgrid="false"
     inkscape:zoom="14.75"
     inkscape:cx="5.790897"
     inkscape:cy="8"
     inkscape:window-x="306"
     inkscape:window-y="279"
     inkscape:window-maximized="0"
     inkscape:current-layer="svg8" />
  <style
     id="style2">.icon-canvas-transparent{opacity:0;fill:#f6f6f6}.icon-vs-out{fill:#f6f6f6}.icon-folder{fill:#dcb67a}.icon-vs-action-green{fill:#388a34}</style>
  <path
     class="icon-canvas-transparent"
     d="M16 16H0V0h16v16z"
     id="canvas" />
  <path
     class="icon-vs-out"
     d="M16 6.5v7c0 .827-.673 1.5-1.5 1.5h-11c-.827 0-1.5-.673-1.5-1.5V6H0V2h2V0h4v2h2v1h2.618l1 2H14.5c.827 0 1.5.673 1.5 1.5z"
     id="outline" />
  <path
     class="icon-folder"
     d="M15 6.5v7a.5.5 0 0 1-.5.5h-11a.5.5 0 0 1-.5-.5V8h3V6h3.5L9 5H8V4h2l1 2h3.5a.5.5 0 0 1 .5.5z"
     id="iconBg" />
  <path
     class="icon-vs-action-green"
     d="M7 5H5v2H3V5H1V3h2V1h2v2h2v2z"
     id="colorAction"
     style="fill:#be0000;fill-opacity:1" />
</svg>
