<?xml version="1.0" encoding="UTF-8" standalone="no"?>
<svg
   xmlns:dc="http://purl.org/dc/elements/1.1/"
   xmlns:cc="http://creativecommons.org/ns#"
   xmlns:rdf="http://www.w3.org/1999/02/22-rdf-syntax-ns#"
   xmlns:svg="http://www.w3.org/2000/svg"
   xmlns="http://www.w3.org/2000/svg"
   xmlns:sodipodi="http://sodipodi.sourceforge.net/DTD/sodipodi-0.dtd"
   xmlns:inkscape="http://www.inkscape.org/namespaces/inkscape"
   viewBox="0 0 16 16"
   version="1.1"
   id="svg19"
   sodipodi:docname="open-market-dark.svg"
   inkscape:version="0.92.3 (2405546, 2018-03-11)">
  <metadata
     id="metadata25">
    <rdf:RDF>
      <cc:Work
         rdf:about="">
        <dc:format>image/svg+xml</dc:format>
        <dc:type
           rdf:resource="http://purl.org/dc/dcmitype/StillImage" />
      </cc:Work>
    </rdf:RDF>
  </metadata>
  <defs
     id="defs23" />
  <sodipodi:namedview
     pagecolor="#ffffff"
     bordercolor="#666666"
     borderopacity="1"
     objecttolerance="10"
     gridtolerance="10"
     guidetolerance="10"
     inkscape:pageopacity="0"
     inkscape:pageshadow="2"
     inkscape:window-width="1622"
     inkscape:window-height="1024"
     id="namedview21"
     showgrid="false"
     inkscape:zoom="14.75"
     inkscape:cx="1.1525424"
     inkscape:cy="8"
     inkscape:window-x="8"
     inkscape:window-y="31"
     inkscape:window-maximized="0"
     inkscape:current-layer="svg19" />
  <style
     id="style2">.st0{opacity:0}.st0,.st1{fill:#f6f6f6}.st2{fill:#424242}.st3{fill:#f0eff1}</style>
  <g
     id="icon_x5F_bg"
     style="fill:#ffffff">
    <path
       class="st2"
       d="M7 12v-2l-2 2V8H3v4l-2-2v2l3 3z"
       id="path11"
       style="fill:#ffffff" />
    <path
       class="st2"
       d="M14.988 7.763C14.862 4.008 11.786 1 8 1a7 7 0 0 0-7 7c0 .204.012.405.03.604l.002.014.968.968V7h.345c.081-.454.208-.891.388-1.302.686.202 1.448.393 2.3.539-.026.245-.034.507-.048.763H6v.016h.047s.03-.275.065-.625c.603.068 1.23.113 1.882.12l.403.002c.488 0 .982-.016 1.487-.054.038.339.066.685.07 1.046a8.673 8.673 0 0 1-.209 1.869c-.584.041-1.158.049-1.74.046h-.006v1.09a22.04 22.04 0 0 0 1.451-.025c-.306.991-.759 2.077-1.353 3.26-.032.001-.064.005-.097.005-.17 0-.338-.011-.504-.025-.087-.193-.149-.385-.229-.577l-1.485 1.485c.346.115.704.205 1.071.266l.021.003A7.065 7.065 0 0 0 8 15a7 7 0 0 0 7-7c0-.08-.01-.157-.012-.237zm-9.803-2.61a19.128 19.128 0 0 1-1.903-.435 5.757 5.757 0 0 1 2.635-2.073 13.08 13.08 0 0 0-.732 2.508zm2.821.268a16.72 16.72 0 0 1-1.739-.111 12.138 12.138 0 0 1 1.001-3.008c.24-.031.483-.052.732-.052.165 0 .327.011.488.024.468.812.944 1.846 1.221 3.108-.571.039-1.133.044-1.703.039zm1.875-2.85a5.755 5.755 0 0 1 2.868 2.188c-.686.236-1.334.4-1.951.496a11.71 11.71 0 0 0-.917-2.684zm-.497 11.004c.546-1.146.967-2.215 1.238-3.193a12.79 12.79 0 0 0 2.886-.734 5.753 5.753 0 0 1-4.124 3.927zm4.347-5.201c-1.038.452-1.972.722-2.848.863a9.32 9.32 0 0 0 .161-1.743c-.004-.4-.035-.783-.076-1.156a12.557 12.557 0 0 0 2.316-.604c.3.696.466 1.461.466 2.266 0 .126-.011.25-.019.374z"
       id="path13"
       style="fill:#ffffff" />
  </g>
</svg>
