<?xml version="1.0" encoding="UTF-8" standalone="no"?>
<svg
   xmlns:dc="http://purl.org/dc/elements/1.1/"
   xmlns:cc="http://creativecommons.org/ns#"
   xmlns:rdf="http://www.w3.org/1999/02/22-rdf-syntax-ns#"
   xmlns:svg="http://www.w3.org/2000/svg"
   xmlns="http://www.w3.org/2000/svg"
   xmlns:sodipodi="http://sodipodi.sourceforge.net/DTD/sodipodi-0.dtd"
   xmlns:inkscape="http://www.inkscape.org/namespaces/inkscape"
   viewBox="0 0 16 16"
   version="1.1"
   id="svg8"
   sodipodi:docname="clear-window-dark.svg"
   inkscape:version="0.92.4 (unknown)">
  <metadata
     id="metadata14">
    <rdf:RDF>
      <cc:Work
         rdf:about="">
        <dc:format>image/svg+xml</dc:format>
        <dc:type
           rdf:resource="http://purl.org/dc/dcmitype/StillImage" />
      </cc:Work>
    </rdf:RDF>
  </metadata>
  <defs
     id="defs12" />
  <sodipodi:namedview
     pagecolor="#ffffff"
     bordercolor="#666666"
     borderopacity="1"
     objecttolerance="10"
     gridtolerance="10"
     guidetolerance="10"
     inkscape:pageopacity="0"
     inkscape:pageshadow="2"
     inkscape:window-width="838"
     inkscape:window-height="480"
     id="namedview10"
     showgrid="false"
     inkscape:zoom="14.75"
     inkscape:cx="4.4654352"
     inkscape:cy="8"
     inkscape:window-x="8"
     inkscape:window-y="31"
     inkscape:window-maximized="0"
     inkscape:current-layer="svg8"
     showguides="false" />
  <style
     id="style2">.icon-canvas-transparent{opacity:0;fill:#f6f6f6}.icon-vs-out{fill:#f6f6f6}.icon-vs-bg{fill:#424242}.icon-vs-action-red{fill:#a1260d}</style>
  <path
     class="icon-canvas-transparent"
     d="M16 16H0V0h16v16z"
     id="canvas" />
  <path
     class="icon-vs-bg"
     d="M7.032 13H14v2H2v-2h5.032zM3.97 6.505L3.475 7h.99l-.495-.495zm0-4.949L4.525 1H3.414l.556.556zM10.711 1H7.354l1.061 1.061-.94.939H14V1h-3.289zM3.187 9H2v2h12V9H3.187zm4.227-4l1 1-1 1H14V5H7.414z"
     id="iconBg"
     style="fill:#c5c5c5;fill-opacity:1" />
  <path
     class="icon-vs-action-red"
     d="M 5.03,4.03 7,6 5.939,7.061 3.969,5.091 2,7.061 0.939,6 2.909,4.03 0.939,2.06 2,1 3.97,2.97 5.939,1 7,2.06 Z"
     id="colorAction"
     inkscape:connector-curvature="0"
     style="fill:#f27c64;fill-opacity:1" />
</svg>
