<?xml version="1.0" encoding="UTF-8" standalone="no"?>
<svg
   xmlns:dc="http://purl.org/dc/elements/1.1/"
   xmlns:cc="http://creativecommons.org/ns#"
   xmlns:rdf="http://www.w3.org/1999/02/22-rdf-syntax-ns#"
   xmlns:svg="http://www.w3.org/2000/svg"
   xmlns="http://www.w3.org/2000/svg"
   xmlns:sodipodi="http://sodipodi.sourceforge.net/DTD/sodipodi-0.dtd"
   xmlns:inkscape="http://www.inkscape.org/namespaces/inkscape"
   viewBox="0 0 16 16"
   version="1.1"
   id="svg13"
   sodipodi:docname="library-dark.svg"
   inkscape:version="0.92.3 (2405546, 2018-03-11)">
  <metadata
     id="metadata19">
    <rdf:RDF>
      <cc:Work
         rdf:about="">
        <dc:format>image/svg+xml</dc:format>
        <dc:type
           rdf:resource="http://purl.org/dc/dcmitype/StillImage" />
        <dc:title></dc:title>
      </cc:Work>
    </rdf:RDF>
  </metadata>
  <defs
     id="defs17" />
  <sodipodi:namedview
     pagecolor="#888888"
     bordercolor="#666666"
     borderopacity="1"
     objecttolerance="10"
     gridtolerance="10"
     guidetolerance="10"
     inkscape:pageopacity="1"
     inkscape:pageshadow="2"
     inkscape:window-width="1899"
     inkscape:window-height="822"
     id="namedview15"
     showgrid="true"
     inkscape:zoom="14.75"
     inkscape:cx="-8.7457627"
     inkscape:cy="8"
     inkscape:window-x="8"
     inkscape:window-y="31"
     inkscape:window-maximized="0"
     inkscape:current-layer="svg13"
     showguides="false">
    <inkscape:grid
       type="xygrid"
       id="grid4521" />
  </sodipodi:namedview>
  <style
     id="style2">.st0{opacity:0}.st0,.st1{fill:#f6f6f6}.st2{fill:#424242}.st3{fill:#f0eff1}</style>
  <g
     id="icon_x5F_bg"
     style="fill:#ffffff;fill-opacity:1">
    <path
       class="st2"
       d="m 11,3 v 11 h 4 V 3 Z m 3,10 h -2 v -1 h 2 z m 0,-2 h -2 v -1 h 2 z M 14,6 H 12 V 4 h 2 z m -8,8 h 4 V 2 H 6 Z M 7,3 H 9 V 4 H 7 Z m 0,7 h 2 v 1 H 7 Z m 0,2 h 2 v 1 H 7 Z M 1,14 H 5 V 3 H 1 Z M 2,4 H 4 V 6 H 2 Z m 0,6 h 2 v 1 H 2 Z m 0,2 h 2 v 1 H 2 Z"
       id="path9"
       inkscape:connector-curvature="0"
       style="fill:#ffffff;fill-opacity:1" />
  </g>
</svg>
