<svg xmlns="http://www.w3.org/2000/svg" viewBox="0 0 16 16"><style>.st0{opacity:0}.st0,.st1{fill:#f6f6f6}.st2{fill:#424242}</style><g id="outline"><path class="st0" d="M0 0h16v16H0z"/><path class="st1" d="M16 11.677L8.469 4.652l2.275-2.273L8.621.257 8 .878V0H5v.878L4.379.257 2.256 2.379 2.878 3H2v3h.878l-.622.622 2.124 2.12 1.829-1.831v9.028L8.781 12.9 10.14 16l3.288-1.481-1.328-3.04 3.9.198z"/></g><g id="icon_x5F_bg"><path class="st2" d="M7 2.571V1H6v1.571c.161-.042.326-.071.5-.071s.339.029.5.071zM10 5V4H8.429c.042.16.071.326.071.5s-.029.34-.071.5H10zM4.5 4.5c0-.174.029-.34.071-.5H3v1h1.571a1.96 1.96 0 0 1-.071-.5zM8.218 3.49l1.111-1.111-.708-.708-1.11 1.111c.292.173.534.415.707.708zM4.782 5.51L3.671 6.621l.708.707 1.11-1.111a1.995 1.995 0 0 1-.707-.707zM3.671 2.379L4.782 3.49c.173-.292.415-.535.707-.707l-1.11-1.111-.708.707zM10.65 14.673l1.465-.66-1.579-3.614 2.778.141-6.105-5.695v8.365l1.845-2.18z"/></g></svg>