<svg xmlns="http://www.w3.org/2000/svg" viewBox="0 0 16 16">
	<style>.st0{opacity:0}.st0,.st1{fill:#f6f6f6}.st2{fill:#424242}.st3{fill:#f0eff1}</style>
	<g id="outline">
		<path class="st0" d="M0 0h16v16H0z"/>
		<path class="st0" d="M0 0h16v16H0z"/>
		<path class="st1"
		      d="M8 0a8 8 0 0 0-8 8c0 .339.028.672.069 1H0v3.414L3.586 16h.828l.587-.587A7.954 7.954 0 0 0 8 16 8 8 0 0 0 8 0z"/>
	</g>
	<g id="icon_x5F_bg">
		<path class="st2" d="M7 12v-2l-2 2V8H3v4l-2-2v2l3 3z"/>
		<path class="st2"
		      d="M14.988 7.763C14.862 4.008 11.786 1 8 1a7 7 0 0 0-7 7c0 .204.012.405.03.604l.002.014.968.968V7h.345c.081-.454.208-.891.388-1.302.686.202 1.448.393 2.3.539-.026.245-.034.507-.048.763H6v.016h.047s.03-.275.065-.625c.603.068 1.23.113 1.882.12l.403.002c.488 0 .982-.016 1.487-.054.038.339.066.685.07 1.046a8.673 8.673 0 0 1-.209 1.869c-.584.041-1.158.049-1.74.046h-.006v1.09a22.04 22.04 0 0 0 1.451-.025c-.306.991-.759 2.077-1.353 3.26-.032.001-.064.005-.097.005-.17 0-.338-.011-.504-.025-.087-.193-.149-.385-.229-.577l-1.485 1.485c.346.115.704.205 1.071.266l.021.003A7.065 7.065 0 0 0 8 15a7 7 0 0 0 7-7c0-.08-.01-.157-.012-.237zm-9.803-2.61a19.128 19.128 0 0 1-1.903-.435 5.757 5.757 0 0 1 2.635-2.073 13.08 13.08 0 0 0-.732 2.508zm2.821.268a16.72 16.72 0 0 1-1.739-.111 12.138 12.138 0 0 1 1.001-3.008c.24-.031.483-.052.732-.052.165 0 .327.011.488.024.468.812.944 1.846 1.221 3.108-.571.039-1.133.044-1.703.039zm1.875-2.85a5.755 5.755 0 0 1 2.868 2.188c-.686.236-1.334.4-1.951.496a11.71 11.71 0 0 0-.917-2.684zm-.497 11.004c.546-1.146.967-2.215 1.238-3.193a12.79 12.79 0 0 0 2.886-.734 5.753 5.753 0 0 1-4.124 3.927zm4.347-5.201c-1.038.452-1.972.722-2.848.863a9.32 9.32 0 0 0 .161-1.743c-.004-.4-.035-.783-.076-1.156a12.557 12.557 0 0 0 2.316-.604c.3.696.466 1.461.466 2.266 0 .126-.011.25-.019.374z"/>
	</g>
	<g id="icon_x5F_fg">
		<path class="st3"
		      d="M10.969 6.338a12.557 12.557 0 0 0 2.316-.604c.299.696.465 1.461.465 2.266 0 .126-.011.25-.019.374-1.038.452-1.972.722-2.848.863a9.32 9.32 0 0 0 .161-1.743 11.3 11.3 0 0 0-.075-1.156zM12.749 4.76c-.686.236-1.334.4-1.951.496a11.703 11.703 0 0 0-.917-2.685 5.757 5.757 0 0 1 2.868 2.189zM8.397 10.513c-.133 0-.265 0-.397-.002v1.903l-.733.733c.08.192.143.384.229.577.166.015.334.026.504.026.033 0 .065-.004.099-.005.594-1.183 1.047-2.269 1.353-3.26-.355.018-.707.028-1.055.028zM9.885 6.459c-.505.039-.997.054-1.485.054L8 6.511a18.67 18.67 0 0 1-1.888-.12c-.036.359-.063.728-.067 1.114-.006.584-.029 1.136.055 1.745l.211.024L8 7.586v1.835c.582.003 1.116-.005 1.7-.046.141-.667.261-1.292.255-1.869a10.356 10.356 0 0 0-.07-1.047zM8 2.25c.165 0 .327.011.488.024.468.812.935 1.846 1.212 3.108-.571.039-1.13.044-1.7.039-.6-.006-1.241-.047-1.8-.111.233-1.215.685-2.214 1.067-3.008.241-.031.484-.052.733-.052zM5.917 2.645a13.08 13.08 0 0 0-.732 2.508 19.128 19.128 0 0 1-1.903-.435 5.768 5.768 0 0 1 2.635-2.073zM4.985 7c.014-.256.021-.518.047-.764a20.105 20.105 0 0 1-2.3-.539A5.783 5.783 0 0 0 2.345 7h2.64zM9.384 13.575c.546-1.146.967-2.215 1.238-3.193a12.79 12.79 0 0 0 2.886-.734 5.753 5.753 0 0 1-4.124 3.927z"/>
	</g>
</svg>